<?xml version="1.0" encoding="UTF-8"?>
<svg id="Layer_1" data-name="Layer 1" xmlns="http://www.w3.org/2000/svg" viewBox="0 0 147.11 82.8">
  <defs>
    <style>
      .cls-1 {
        fill: #1d1e1b;
      }

      .cls-2 {
        fill: #047cc1;
      }

      .cls-3 {
        fill: #a083bb;
      }
    </style>
  </defs>
  <path class="cls-1" d="M111.89,42.69c.44-.14.88-.47,1.28-.85-2.27-.17-3.68-.27-3.68-.27l2.4,1.12Z"/>
  <path class="cls-1" d="M113.23,41.84s-.04,0-.06,0c-.4.38-.84.71-1.28.85l-2.4-1.12s1.41.1,3.68.27c.89-.84,1.58-1.96,1.58-1.96.57-1.06.49-2.32.49-2.32-.11-2.28-.68-2.69-2.17-4.23s-6.47-2-6.47-2c-4.43-.23-6.81-.79-8.21-1.5-1.4-.71-1.4-2.25-1.4-2.25-.14-2.05,2.28-3.19,2.28-3.19,4.8-1.82,7.92-.37,7.92-.37,2.23.43,3.04,2.62,3.61,3.42.57.8,2.24.51,2.24.51,1.23-.5,1.09-1.31,1.09-1.31l-.51-4.77c-.15-.79-1.07-.75-2.27-.73-1.2.01-1.17.94-1.17.94l-1.93-.53c-2.94-.98-7.49-.75-10.56.54-3.08,1.29-4.68,3.34-4.69,5.64,0,2.29,1.17,3.59,3.62,4.88,2.45,1.29,8.89,1.52,10.56,1.81,1.66.29,3.98,1.16,4.07,3.49s-2.92,3.33-2.92,3.33c0,0-6.86-1.81-8.49-.81-1.62.99-2.89-.72-3.5-2.41s-1.51-1.47-2.82-1.56-1.28,1.6-1.28,1.6l.06,2.91c-1.44-.41-8.31,1.53-8.31,1.53.13-1.4-1.44-1.31-1.44-1.31h-7.1s0-16.88,0-16.88h5.58s2.43.5,2.96-1.35-2.96-1.35-2.96-1.35h-14.99s-2.82-.46-2.99,1.35,2.99,1.35,2.99,1.35h5.58v16.9s-2.57-.24-5.58,0c-3.01.24-2.44.27-2.99,1.29s-7.01-.94-7.01-.94c-10.52-3.57-20.28,1.22-20.28,1.22-1.33-.29-5.36-.33-10.25-.24-10.51.2-24.96.97-24.96.97,0,0-.85,9.86-.45,8.3.4-1.55,32.74-2.19,34.8-2.42,2.06-.23,5.05,2.06,5.28,2.41.23.34,8.6,5.89,8.6,5.89,0,0-4.55.19-7.04,0-2.48-.19-2.33,1.4-2.33,1.4-.06,1.35,1.64,1.32,1.64,1.32l3.09.09v17.6l-3.22.07c-1.57.07-1.51,1.27-1.51,1.27-.07,1.43,1.88,1.41,1.88,1.41h22.45c1.77.03,1.77-1.45,1.77-1.45v-4.92c.17-2.04-1.77-1.91-1.77-1.91-2.2-.07-1.85,2.36-1.85,2.36v3.16h-13.68v-8.65h6.74l.03,1.32c.11.46-.21,1.54,1.59,1.65s1.64-1.88,1.64-1.88l-.02-4.77c.07-1.75-1.56-1.59-1.56-1.59-1.9-.1-1.67,1.88-1.67,1.88v1.04h-6.74v-6.58h13.68v2.79c-.21,2.69,1.85,2.36,1.85,2.36,2.04.14,1.77-1.8,1.77-1.8,0,0,.03-3.84,0-4.61s-.45-1.16-.45-1.16c6.76-8.95,14.3-1.23,14.62-.06.32,1.17,5.8,2.47,5.8,2.47v17.6s-3.21,0-4.87.07-1.4,1.28-1.4,1.28c-.06,1.53,1.85,1.41,1.85,1.41,0,0,21.78.32,24.01,0,2.23-.32,1.85-1.45,1.85-1.45,0,0,.06-4.9,0-6.43s.27-1.99-1.85-2.32-1.85,2.32-1.85,2.32v5.12h-13.68v-17.6s5.85.31,6.85-.3,5.19-6.34,5.19-6.34c0,0,2.74-3.58,7.91-4.75s37.62,1.57,37.62,1.57v-5.97c-3.82-.61-25.15-2.21-33.89-2.86Z"/>
  <path class="cls-1" d="M25.52,42.55c0-1.11-1.63-1.36-1.63-1.36l-1.27.02v-16.9s1.47.11,2.44-.31.45-2.02.06-2.05-.13-.36-2.46-.34-6.12,0-6.12,0c0,0-2.17-.05-2.08,1.35s2.22,1.36,2.22,1.36h2.08s0,6.52,0,6.52H6.94v-6.53l2.9-.09s1.16-.03,1.39-1.26-1.04-1.35-2.04-1.35-7.22,0-7.22,0c0,0-1.91-.24-1.88,1.35,0,0-.34,1.26,1.7,1.36h1.29s0,16.89,0,16.89l-1.61.08s-1.45-.03-1.37,1.21,1.42,1.35,1.42,1.35h6.93s1.66-.05,2.27-.29.52-1.06.52-1.06c0,0,.08-.69-.59-.99,0,0,.15-.3-3.7-.3v-7.8h11.83v7.8l-2.55.04s-1.79-.1-1.75,1.26,1.41,1.34,1.75,1.35,7.4,0,7.4,0c0,0,1.89.01,1.9-1.31Z"/>
  <path class="cls-1" d="M7.34,67.31h12.31v-6.8s-2.65.12-3.84-.33c0,0-1.4-1.15-.05-2.18,0,0,1.27-.46,3.9-.3h4.06s2.17-.14,2.56.35,0,0,0,0c0,0,1.08.97-.06,2.14s0,0,0,0c0,0-.74.33-2.54.32v17.6s3.26-.33,3.08,1.35-1.1,1.15-3.03,1.41h-6.67s-1.98-.08-1.87-1.41,1.53-1.25,1.87-1.3,2.61-.05,2.61-.05v-8.12H7.34v8.12l2.86.07s1.48-.08,1.61,1.28-1.86,1.41-1.86,1.41H3.28s-1.16,0-1.16,0c0,0-1.97.05-1.9-1.41,0,0-.24-1.22,1.72-1.34h1.39v-17.61s-2.2.04-2.53-.31c0,0-1.22-.93-.1-2.16,0,0-.05-.4,2.58-.34s6.34,0,6.34,0c0,0,2.43-.1,2.19,1.4s-2.16,1.35-2.16,1.35l-2.31.06v6.8Z"/>
  <path class="cls-1" d="M143.22,59.53c-5.28-2.55-20.08-2.35-21.95-1.83-1.87.52-1.3,2.09-.69,2.51s4.61.3,4.61.3v17.6h-3.32s-1.94-.15-1.85,1.35c.08,1.5,1.8,1.41,1.8,1.41,0,0,11.68.06,12.57,0s2.46.15,2.6-1.41-2.39-1.35-2.39-1.35h-5.37v-5.96c13.6.04,11-1.06,14.01-1.82,3.01-.75,5.25-8.25-.03-10.8ZM129.24,69.57v-9.06s13.24-1.4,12.86,4.51c-.38,5.92-9.35,4.48-12.86,4.55Z"/>
  <path class="cls-1" d="M63.05,42.51c-1.7,1.18-8.32-1.34-8.32-1.34-.09-2.17-.07-4.45-.4-4.87s-2.14-.65-2.72.03-.42,4.14-.42,4.14c-.1-.95-13.09.76-13.09.76v-8.31h6.47s-.21,1.73.33,2.4,2.07.48,2.46.06.35-1.8.35-1.8v-3.49c.15-2.56-1.53-2.23-1.53-2.23-2.21-.12-1.6,2.79-1.6,2.79h-6.47v-6.32h13.13s-.14,1.56,0,2.68-.25,2.2,1.78,2.27,1.7-1.73,1.7-1.73c0,0,.04-2.74,0-4.43s-1.7-1.5-1.7-1.5h-21.5c-1.11,0-1.91.36-1.85,1.35s.56,1.06,1.15,1.21,3.39.14,3.39.14v16.9s-4.72-.32-4.59,1.29"/>
  <path class="cls-1" d="M139,43.87l2.14-.02s1.79-.05,1.73-1.35-1.42-1.29-1.42-1.29h-5.32v-16.9h7.09l.25,4.88s-.22,1.82,1.23,2.13,2.55-.38,2.4-1.57-.3-6.83-.3-6.83c0,0,.19-1.29-1.85-1.31s-21.45,0-21.45,0c0,0-2.08-.47-1.91,1.91l-.26,6.47s-.22.98,1.06,1.29,1.6-.23,2.16-.31.46-2.94.46-2.94l.22-3.73h7.09v16.9h-4.62s-.94-.1-1.64.3-.42,1.27-.42,1.27"/>
  <path class="cls-2" d="M43.3,46.77s11.04-4.01,17.92-.26c1.57.86,2.24,2.77,1.68,4.47-.4,1.22-.99,2.53-1.8,3.19-1.73,1.42-14.8-1.42-15.91-2.52s-3.16-2.35-1.89-4.88Z"/>
  <path class="cls-3" d="M100.61,47.36s-11.04-4.01-17.92-.26c-1.57.86-2.24,2.77-1.68,4.47.4,1.22.99,2.53,1.8,3.19,1.73,1.42,14.8-1.42,15.91-2.52s3.16-2.35,1.89-4.88Z"/>
</svg>