<?xml version="1.0" encoding="UTF-8"?>
<svg id="Layer_1" data-name="Layer 1" xmlns="http://www.w3.org/2000/svg" viewBox="0 0 159.93 159.93">
  <defs>
    <style>
      .cls-1 {
        fill: #1d1d1b;
      }

      .cls-2, .cls-3 {
        fill: #fff;
      }

      .cls-3 {
        stroke: #000;
        stroke-miterlimit: 10;
        stroke-width: 2px;
      }
    </style>
  </defs>
  <rect class="cls-3" x="1" y="1" width="157.93" height="157.93" rx="78.97" ry="78.97"/>
  <g>
    <path d="M1,94.78c.47-2.2,30.66-2.86,33.1-3.19,2.75-.37,5.25,2.26,6.01,3.14.18.21.39.38.61.51,6.19,3.76,8.55,6.25,11.39,7.89,3.31,1.92,8.59,3.47,16.92,1.05.49-.14.92-.48,1.26-.93,1.58-2.14,3.88-4.48,6.98-5.29l.27-15.42s-1.75-.53-5.31-.19c-3.56.34-1.82-.07-4.83-.56-1.36-.22-8.29-1.34-8.29-1.34-10.73-4.38-20.8.09-23.36,1.4-.41.21-.85.27-1.3.21-2.02-.29-6.34-.32-11.45-.21-9.72.22-15.88-.24-20.9.06M67.53,93.77c-.47,1.73-1.17,3.6-2.13,4.54-2.05,2.02-17.51-2.02-18.82-3.58s-3.74-3.34-2.24-6.94c0,0,13.06-5.7,21.2-.37,1.86,1.22,2.65,3.94,1.99,6.36Z"/>
    <path d="M158.93,81.48c-5.24.94-11.1.89-20.83.67-5.11-.11-9.43-.08-11.45.21-.45.06-.89,0-1.3-.21-2.56-1.31-12.63-5.78-23.36-1.4,0,0-6.93,1.11-8.29,1.34-3.01.49-1.27.9-4.83.56s-5.31.19-5.31.19l.27,15.42c3.1.81,5.4,3.15,6.98,5.29.33.45.77.79,1.26.93,8.33,2.41,13.61.87,16.92-1.05,2.84-1.65,5.2-4.13,11.39-7.89.22-.13.43-.3.61-.51.76-.89,3.27-3.51,6.01-3.14,2.44.33,31.7-.45,32.17,1.76M94.89,87.71c8.14-5.33,21.2.37,21.2.37,1.5,3.6-.92,5.37-2.24,6.94s-16.77,5.6-18.82,3.58c-.96-.94-1.66-2.8-2.13-4.54-.66-2.42.13-5.13,1.99-6.36Z"/>
  </g>
  <path class="cls-1" d="M38.47,72.87h35.9v-19.83s-7.73.35-11.2-.96c0,0-4.08-3.35-.15-6.36,0,0,3.7-1.34,11.37-.87h11.84s6.33-.41,7.47,1.02,0,0,0,0c0,0,3.15,2.83-.17,6.24s0,0,0,0c0,0-2.16.96-7.41.93v51.33s9.51-.96,8.98,3.94c-.52,4.9-3.21,3.35-8.84,4.11h-19.45s-5.77-.23-5.45-4.11,4.46-3.65,5.45-3.79,7.61-.15,7.61-.15v-23.68h-35.96v23.68l8.34.2s4.32-.23,4.7,3.73c.38,3.97-5.42,4.11-5.42,4.11h-22.84s-5.75.15-5.54-4.11c0,0-.7-3.56,5.02-3.91h4.05v-51.36s-6.42.12-7.38-.9c0,0-3.56-2.71-.29-6.3,0,0-.15-1.17,7.52-.99,7.67.17,18.49,0,18.49,0,0,0,7.09-.29,6.39,4.08-.7,4.37-6.3,3.94-6.3,3.94l-6.74.17s0,19.83,0,19.83Z"/>
  <path class="cls-1" d="M85.28,72.87h35.9v-19.83s-7.73.35-11.2-.96c0,0-4.08-3.35-.15-6.36,0,0,3.7-1.34,11.37-.87h11.84s6.33-.41,7.47,1.02,0,0,0,0c0,0,3.15,2.83-.17,6.24s0,0,0,0c0,0-2.16.96-7.41.93v51.33s9.51-.96,8.98,3.94c-.52,4.9-3.21,3.35-8.84,4.11h-19.45s-5.77-.23-5.45-4.11,4.46-3.65,5.45-3.79,7.61-.15,7.61-.15v-23.68h-35.96v23.68l8.34.2s4.32-.23,4.7,3.73c.38,3.97-5.42,4.11-5.42,4.11h-22.84s-5.75.15-5.54-4.11c0,0-.7-3.56,5.02-3.91h4.05v-51.36s-6.42.12-7.38-.9c0,0-3.56-2.71-.29-6.3,0,0-.15-1.17,7.52-.99,7.67.17,18.49,0,18.49,0,0,0,7.09-.29,6.39,4.08-.7,4.37-6.3,3.94-6.3,3.94l-6.74.17s0,19.83,0,19.83Z"/>
  <path class="cls-2" d="M42.74,87.31s15.56-6.35,25.26-.41c2.21,1.36,3.16,4.39,2.37,7.08-.56,1.93-1.4,4.01-2.54,5.05-2.44,2.25-20.86-2.25-22.42-3.99s-4.45-3.72-2.66-7.73Z"/>
  <path class="cls-2" d="M114.21,95.04c-1.56,1.74-19.99,6.24-22.42,3.99-1.14-1.05-1.97-3.12-2.54-5.05-.79-2.69.16-5.72,2.37-7.08,9.7-5.94,25.26.41,25.26.41,1.79,4.01-1.1,5.99-2.66,7.73Z"/>
</svg>