<?xml version="1.0" encoding="UTF-8"?>
<svg id="Layer_1" data-name="Layer 1" xmlns="http://www.w3.org/2000/svg" viewBox="0 0 413.76 409.58">
  <defs>
    <style>
      .cls-1 {
        fill: #f9b233;
        stroke: #1d1d1b;
        stroke-miterlimit: 10;
        stroke-width: 2px;
      }

      .cls-2 {
        fill: #858584;
      }

      .cls-3 {
        fill: #1d1d1b;
      }

      .cls-4 {
        fill: #9f83bb;
      }

      .cls-5 {
        fill: #0d7dc2;
      }
    </style>
  </defs>
  <rect class="cls-1" x="1" y="1" width="407.58" height="407.58" rx="203.79" ry="203.79"/>
  <g>
    <path class="cls-3" d="M1,213.81c10.47,5.42,79.14,21.83,85.42,20.99,7.08-.95,13.55,5.82,15.51,8.11.45.53,1,.97,1.57,1.32,15.96,9.71,22.07,16.12,29.39,20.37,8.55,4.96,22.17,8.94,43.67,2.71,1.25-.36,2.38-1.24,3.24-2.4,4.08-5.52,10.02-11.56,18.02-13.65l.68-39.79s-4.51-1.38-13.7-.5c-9.19.88-4.69-.18-12.46-1.44-3.51-.57-21.4-3.45-21.4-3.45-27.7-11.3-53.67.22-60.28,3.61-1.07.54-2.2.7-3.35.54-5.21-.76-16.36-.84-29.55-.55-25.09.57-42.83-25.78-55.78-25M172.69,240.42c-1.22,4.48-3.02,9.28-5.49,11.7-5.28,5.21-45.18-5.21-48.56-9.25-3.39-4.04-9.65-8.62-5.77-17.91,0,0,33.7-14.71,54.7-.95,4.79,3.16,6.84,10.16,5.13,16.4Z"/>
    <path class="cls-3" d="M408.58,189.09c-11.64,15.7-28.65,21.9-53.75,21.33-13.2-.29-24.34-.21-29.55.55-1.15.17-2.29,0-3.35-.54-6.62-3.38-32.59-14.9-60.28-3.61,0,0-17.89,2.88-21.4,3.45-7.78,1.27-3.28,2.32-12.46,1.44-9.19-.88-13.7.5-13.7.5l.68,39.79c8,2.1,13.94,8.14,18.02,13.65.86,1.16,1.98,2.04,3.24,2.4,21.5,6.23,35.12,2.25,43.67-2.71,7.33-4.25,13.43-10.66,29.39-20.37.57-.34,1.11-.79,1.57-1.32,1.96-2.28,8.43-9.06,15.51-8.11,6.29.84,98.66-12.28,86.48-16.65M243.31,224.78c21-13.76,54.7.95,54.7.95,3.88,9.28-2.38,13.87-5.77,17.91-3.39,4.04-43.28,14.46-48.56,9.25-2.47-2.42-4.27-7.23-5.49-11.7-1.71-6.24.34-13.25,5.13-16.4Z"/>
  </g>
  <path class="cls-2" d="M97.71,186.47h92.65v-51.18s-19.94.9-28.9-2.48c0,0-10.54-8.66-.38-16.41,0,0,9.56-3.46,29.35-2.26h30.56s16.33-1.05,19.27,2.63c2.94,3.69,0,0,0,0,0,0,8.13,7.3-.45,16.11s0,0,0,0c0,0-5.57,2.48-19.12,2.41v132.46s24.54-2.48,23.18,10.16c-1.35,12.64-8.28,8.66-22.8,10.61h-50.2s-14.9-.6-14.07-10.61c.83-10.01,11.52-9.41,14.07-9.78,2.56-.38,19.64-.38,19.64-.38v-61.11h-92.8v61.11l21.53.53s11.14-.6,12.12,9.63c.98,10.24-14,10.61-14,10.61h-58.93s-14.83.38-14.3-10.61c0,0-1.81-9.18,12.95-10.09h10.46v-132.54s-16.56.3-19.04-2.33c0,0-9.18-7-.75-16.26,0,0-.38-3.01,19.42-2.56,19.79.45,47.72,0,47.72,0,0,0,18.29-.75,16.48,10.54-1.81,11.29-16.26,10.16-16.26,10.16l-17.39.45s0,51.18,0,51.18Z"/>
  <path class="cls-2" d="M218.5,186.47h92.65v-51.18s-19.94.9-28.9-2.48c0,0-10.54-8.66-.38-16.41,0,0,9.56-3.46,29.35-2.26h30.56s16.33-1.05,19.27,2.63c2.94,3.69,0,0,0,0,0,0,8.13,7.3-.45,16.11-8.58,8.81,0,0,0,0,0,0-5.57,2.48-19.12,2.41v132.46s24.54-2.48,23.18,10.16c-1.35,12.64-8.28,8.66-22.8,10.61h-50.2s-14.9-.6-14.07-10.61c.83-10.01,11.52-9.41,14.07-9.78,2.56-.38,19.64-.38,19.64-.38v-61.11h-92.8v61.11l21.53.53s11.14-.6,12.12,9.63c.98,10.24-14,10.61-14,10.61h-58.93s-14.83.38-14.3-10.61c0,0-1.81-9.18,12.95-10.09h10.46v-132.54s-16.56.3-19.04-2.33c0,0-9.18-7-.75-16.26,0,0-.38-3.01,19.42-2.56,19.79.45,47.72,0,47.72,0,0,0,18.29-.75,16.48,10.54-1.81,11.29-16.26,10.16-16.26,10.16l-17.39.45s0,51.18,0,51.18Z"/>
  <path class="cls-5" d="M108.71,223.74s40.16-16.39,65.18-1.06c5.71,3.51,8.15,11.32,6.11,18.27-1.45,4.99-3.6,10.34-6.55,13.04-6.29,5.8-53.83-5.8-57.87-10.3-4.04-4.5-11.49-9.6-6.87-19.94Z"/>
  <path class="cls-4" d="M293.17,243.68c-4.04,4.5-51.58,16.1-57.87,10.3-2.95-2.7-5.09-8.05-6.55-13.04-2.04-6.95.4-14.75,6.11-18.27,25.02-15.32,65.18,1.06,65.18,1.06,4.62,10.34-2.84,15.45-6.87,19.94Z"/>
</svg>